<?xml version="1.0" standalone="no"?>
<!DOCTYPE svg PUBLIC "-//W3C//DTD SVG 20010904//EN"
 "http://www.w3.org/TR/2001/REC-SVG-20010904/DTD/svg10.dtd">
<svg version="1.0" xmlns="http://www.w3.org/2000/svg"
 width="500.000000pt" height="500.000000pt" viewBox="0 0 500.000000 500.000000"
 preserveAspectRatio="xMidYMid meet">

<g transform="translate(0.000000,500.000000) scale(0.100000,-0.100000)"
fill="#000000" stroke="none">
<path d="M2425 4776 c-148 -36 -262 -140 -309 -281 -9 -28 -18 -55 -21 -62 -3
-8 -16 -8 -51 3 -62 18 -185 18 -259 -1 -161 -42 -276 -163 -322 -337 -14 -54
-17 -149 -20 -668 -3 -333 -6 -606 -7 -607 -1 -2 -36 4 -77 13 -259 54 -539
-28 -782 -229 -39 -32 -45 -42 -35 -54 6 -8 64 -56 127 -107 258 -208 370
-366 430 -608 26 -107 39 -222 46 -433 10 -332 71 -540 223 -770 61 -91 197
-233 293 -305 474 -353 1273 -353 1750 2 158 117 316 310 394 481 85 188 113
329 125 642 10 239 24 345 64 461 70 208 182 351 427 547 53 42 101 83 108 91
10 12 0 25 -68 79 -98 77 -226 146 -341 182 -132 42 -331 46 -467 9 l-22 -6
-3 608 c-4 586 -5 612 -25 686 -28 100 -55 150 -111 210 -103 110 -281 155
-454 114 -61 -14 -68 -13 -68 15 0 38 -81 177 -130 223 -106 99 -266 138 -415
102z m258 -119 c70 -32 117 -74 150 -136 29 -53 57 -161 57 -223 0 -21 2 -38
5 -38 2 0 26 14 52 30 92 59 217 76 331 46 120 -32 184 -103 228 -252 16 -53
18 -126 21 -733 4 -626 5 -673 21 -667 144 47 196 58 297 63 91 5 125 2 195
-16 87 -21 262 -102 314 -143 l28 -24 -113 -94 c-121 -102 -227 -224 -287
-330 -85 -151 -139 -353 -147 -550 -3 -58 -7 -159 -10 -225 -3 -66 -12 -160
-21 -210 -89 -510 -481 -886 -1010 -969 -128 -20 -377 -21 -504 -1 -292 44
-550 177 -733 376 -217 237 -317 530 -317 928 0 230 -38 417 -118 584 -80 167
-182 288 -364 434 l-71 56 29 24 c46 37 193 109 274 135 64 20 95 23 210 22
136 -1 152 -4 321 -60 26 -9 29 70 29 730 0 638 1 658 44 748 86 180 337 244
523 132 30 -19 57 -34 59 -34 2 0 4 18 4 40 0 183 111 340 267 380 63 15 176
5 236 -23z"/>
<path d="M1915 2561 c-50 -13 -89 -37 -132 -84 -142 -154 -182 -467 -90 -697
27 -66 27 -80 -1 -80 -9 0 -48 -17 -87 -38 -49 -27 -71 -45 -73 -60 -5 -36 21
-35 89 2 35 19 88 41 118 50 70 20 196 20 274 0 63 -16 184 -73 226 -105 28
-22 57 -25 64 -5 8 20 -10 39 -75 80 l-56 36 34 67 c53 106 68 179 68 328 0
193 -39 314 -135 419 -69 76 -147 106 -224 87z m80 -304 c14 -45 32 -91 40
-103 9 -14 44 -31 102 -48 48 -16 92 -31 96 -36 5 -4 -38 -23 -95 -42 l-103
-34 -35 -102 c-19 -56 -37 -102 -40 -102 -4 0 -22 46 -41 101 l-34 102 -103
35 c-56 20 -99 39 -95 43 4 4 48 19 96 34 54 17 93 35 102 48 7 11 26 59 41
108 15 49 31 86 35 83 5 -3 20 -42 34 -87z"/>
<path d="M3025 2552 c-64 -21 -133 -89 -175 -172 -97 -193 -95 -484 5 -666
l34 -63 -57 -38 c-37 -25 -57 -45 -57 -58 0 -31 30 -29 80 5 188 129 420 146
604 43 55 -30 65 -33 77 -21 8 8 12 21 9 29 -7 18 -106 73 -162 90 -24 7 -43
13 -43 15 0 1 9 22 19 47 60 140 68 380 18 529 -50 145 -125 235 -221 263 -61
18 -68 18 -131 -3z m105 -299 c18 -54 39 -103 48 -110 8 -7 58 -27 111 -44
l96 -32 -100 -34 c-65 -21 -105 -40 -115 -54 -8 -12 -26 -58 -40 -101 -14 -44
-29 -80 -35 -80 -5 0 -23 40 -40 89 -16 49 -33 94 -38 100 -4 6 -50 26 -103
43 -53 18 -92 36 -87 40 4 4 46 20 91 36 46 15 90 33 97 39 7 5 27 54 45 108
17 53 33 97 35 97 2 0 18 -44 35 -97z"/>
<path d="M2820 1120 c0 -17 7 -44 15 -59 13 -26 13 -30 -3 -44 -36 -33 -154
-79 -239 -94 -111 -19 -223 -8 -353 37 -93 32 -120 33 -120 6 0 -41 178 -96
331 -103 164 -8 288 23 409 103 25 15 28 15 65 -10 43 -30 88 -31 93 -4 2 11
-10 24 -36 37 -52 26 -99 82 -108 126 -5 28 -11 35 -30 35 -20 0 -24 -5 -24
-30z"/>
<path d="M2615 778 c-39 -14 -64 -17 -115 -12 -118 12 -125 11 -125 -11 0 -64
311 -55 323 9 2 10 -2 22 -10 27 -15 10 -10 11 -73 -13z"/>
</g>
</svg>
